<mxfile host="app.diagrams.net" agent="Mozilla/5.0 (Windows NT 10.0; Win64; x64) AppleWebKit/537.36 (KHTML, like Gecko) Chrome/129.0.0.0 Safari/537.36" version="24.7.17">
  <diagram name="Página-1" id="0yyZf2vExyStb92xReoz">
    <mxGraphModel dx="1434" dy="1949" grid="1" gridSize="10" guides="1" tooltips="1" connect="1" arrows="1" fold="1" page="1" pageScale="1" pageWidth="827" pageHeight="1169" math="0" shadow="0">
      <root>
        <mxCell id="0" />
        <mxCell id="1" parent="0" />
        <mxCell id="OzVhn0ZwfNGyfeAr3oJH-1" value="Diagrama de sequência do caso de uso Adicionar produtos" style="text;html=1;align=center;verticalAlign=middle;whiteSpace=wrap;rounded=0;" vertex="1" parent="1">
          <mxGeometry x="248" y="-1120" width="331" height="30" as="geometry" />
        </mxCell>
        <mxCell id="OzVhn0ZwfNGyfeAr3oJH-2" value="Vendedor" style="shape=umlActor;verticalLabelPosition=bottom;verticalAlign=top;html=1;outlineConnect=0;" vertex="1" parent="1">
          <mxGeometry x="90" y="-1020" width="30" height="60" as="geometry" />
        </mxCell>
        <mxCell id="OzVhn0ZwfNGyfeAr3oJH-3" value="Sistema" style="rounded=0;whiteSpace=wrap;html=1;" vertex="1" parent="1">
          <mxGeometry x="364" y="-980" width="100" height="30" as="geometry" />
        </mxCell>
        <mxCell id="OzVhn0ZwfNGyfeAr3oJH-4" value="" style="endArrow=none;dashed=1;html=1;dashPattern=1 3;strokeWidth=2;rounded=0;entryX=0.5;entryY=0.5;entryDx=0;entryDy=0;entryPerimeter=0;" edge="1" parent="1">
          <mxGeometry width="50" height="50" relative="1" as="geometry">
            <mxPoint x="105" as="sourcePoint" />
            <mxPoint x="104.5" y="-940" as="targetPoint" />
          </mxGeometry>
        </mxCell>
        <mxCell id="OzVhn0ZwfNGyfeAr3oJH-5" value="" style="endArrow=none;dashed=1;html=1;dashPattern=1 3;strokeWidth=2;rounded=0;entryX=0.5;entryY=0.5;entryDx=0;entryDy=0;entryPerimeter=0;" edge="1" parent="1">
          <mxGeometry width="50" height="50" relative="1" as="geometry">
            <mxPoint x="414" y="30" as="sourcePoint" />
            <mxPoint x="414" y="-950" as="targetPoint" />
          </mxGeometry>
        </mxCell>
        <mxCell id="OzVhn0ZwfNGyfeAr3oJH-6" value="" style="html=1;points=[[0,0,0,0,5],[0,1,0,0,-5],[1,0,0,0,5],[1,1,0,0,-5]];perimeter=orthogonalPerimeter;outlineConnect=0;targetShapes=umlLifeline;portConstraint=eastwest;newEdgeStyle={&quot;curved&quot;:0,&quot;rounded&quot;:0};" vertex="1" parent="1">
          <mxGeometry x="404" y="-800" width="10" height="80" as="geometry" />
        </mxCell>
        <mxCell id="OzVhn0ZwfNGyfeAr3oJH-7" value="Informar dados do produto" style="html=1;verticalAlign=bottom;endArrow=block;curved=0;rounded=0;entryX=0;entryY=0;entryDx=0;entryDy=5;" edge="1" target="OzVhn0ZwfNGyfeAr3oJH-6" parent="1">
          <mxGeometry relative="1" as="geometry">
            <mxPoint x="100" y="-795" as="sourcePoint" />
          </mxGeometry>
        </mxCell>
        <mxCell id="OzVhn0ZwfNGyfeAr3oJH-8" value="Mensagem informando que a operação foi bem sucedida" style="html=1;verticalAlign=bottom;endArrow=open;dashed=1;endSize=8;curved=0;rounded=0;exitX=0;exitY=1;exitDx=0;exitDy=-5;" edge="1" source="OzVhn0ZwfNGyfeAr3oJH-6" parent="1">
          <mxGeometry relative="1" as="geometry">
            <mxPoint x="110" y="-725" as="targetPoint" />
          </mxGeometry>
        </mxCell>
        <mxCell id="OzVhn0ZwfNGyfeAr3oJH-9" value="Alternativa" style="shape=umlFrame;whiteSpace=wrap;html=1;pointerEvents=0;" vertex="1" parent="1">
          <mxGeometry x="70" y="-880" width="380" height="370" as="geometry" />
        </mxCell>
        <mxCell id="OzVhn0ZwfNGyfeAr3oJH-10" value="&lt;font style=&quot;font-size: 11px;&quot;&gt;Se dados estão válidos&lt;/font&gt;" style="text;html=1;align=center;verticalAlign=middle;whiteSpace=wrap;rounded=0;" vertex="1" parent="1">
          <mxGeometry x="130" y="-880" width="130" height="30" as="geometry" />
        </mxCell>
        <mxCell id="OzVhn0ZwfNGyfeAr3oJH-13" value="" style="html=1;points=[[0,0,0,0,5],[0,1,0,0,-5],[1,0,0,0,5],[1,1,0,0,-5]];perimeter=orthogonalPerimeter;outlineConnect=0;targetShapes=umlLifeline;portConstraint=eastwest;newEdgeStyle={&quot;curved&quot;:0,&quot;rounded&quot;:0};" vertex="1" parent="1">
          <mxGeometry x="404" y="-620" width="10" height="80" as="geometry" />
        </mxCell>
        <mxCell id="OzVhn0ZwfNGyfeAr3oJH-14" value="Informar dados do produto" style="html=1;verticalAlign=bottom;endArrow=block;curved=0;rounded=0;entryX=0;entryY=0;entryDx=0;entryDy=5;" edge="1" parent="1" target="OzVhn0ZwfNGyfeAr3oJH-13">
          <mxGeometry relative="1" as="geometry">
            <mxPoint x="100" y="-615" as="sourcePoint" />
          </mxGeometry>
        </mxCell>
        <mxCell id="OzVhn0ZwfNGyfeAr3oJH-15" value="Mensagem informando que a operação falhou" style="html=1;verticalAlign=bottom;endArrow=open;dashed=1;endSize=8;curved=0;rounded=0;exitX=0;exitY=1;exitDx=0;exitDy=-5;" edge="1" parent="1" source="OzVhn0ZwfNGyfeAr3oJH-13">
          <mxGeometry relative="1" as="geometry">
            <mxPoint x="110" y="-545" as="targetPoint" />
          </mxGeometry>
        </mxCell>
        <mxCell id="OzVhn0ZwfNGyfeAr3oJH-16" value="" style="endArrow=none;dashed=1;html=1;dashPattern=1 3;strokeWidth=2;rounded=0;entryX=1;entryY=0.649;entryDx=0;entryDy=0;entryPerimeter=0;" edge="1" parent="1">
          <mxGeometry width="50" height="50" relative="1" as="geometry">
            <mxPoint x="70" y="-670" as="sourcePoint" />
            <mxPoint x="450" y="-669.8699999999999" as="targetPoint" />
          </mxGeometry>
        </mxCell>
        <mxCell id="OzVhn0ZwfNGyfeAr3oJH-17" value="&lt;span style=&quot;font-size: 11px;&quot;&gt;Se dados informados estão inválidos&lt;/span&gt;" style="text;html=1;align=center;verticalAlign=middle;whiteSpace=wrap;rounded=0;" vertex="1" parent="1">
          <mxGeometry x="100" y="-670" width="190" height="30" as="geometry" />
        </mxCell>
      </root>
    </mxGraphModel>
  </diagram>
</mxfile>
